# xmcd
#
# Track frame offsets: 
#        150
#        14026
#        32027
#        40653
#        53778
#        76429
#        89031
#        101708
#        114309
#        131939
#        144089
#        162773
#
# Disc length: 2348 seconds
#
# Revision: 0
# Processed by: cddbd v1.5.2PL0 Copyright (c) Steve Scherf et al.
# Submitted via: ExactAudioCopy v0.95b4
#
DISCID=9d092a0c
DTITLE=Ulrich Roski - Das ist der Dank
DYEAR=1975
DGENRE=Avantgarde
TTITLE0=Man kommt viel rum
TTITLE1=Selbst ist der Mann
TTITLE2=Angelika
TTITLE3=Franzl's Rag
TTITLE4=Des Pudels Kern
TTITLE5=Wo ist der Schnee vom vergangenen Jahr
TTITLE6=Das ist der Dank
TTITLE7=Get your feet back
TTITLE8=Spiel nicht mit mir
TTITLE9=Moog meets Mandoline
TTITLE10=Die ungemeine Prominenz
TTITLE11=Wer nimmt denn da den Mund so voll
EXTD=
EXTT0=
EXTT1=
EXTT2=
EXTT3=
EXTT4=
EXTT5=
EXTT6=
EXTT7=
EXTT8=
EXTT9=
EXTT10=
EXTT11=
PLAYORDER=
